<svg xmlns="http://www.w3.org/2000/svg" xmlns:xlink="http://www.w3.org/1999/xlink" width="500" zoomAndPan="magnify" viewBox="0 0 375 374.999991" height="500" preserveAspectRatio="xMidYMid meet" version="1.0"><defs><g/><clipPath id="c3d2262f50"><path d="M 3.667969 76 L 106 76 L 106 196 L 3.667969 196 Z M 3.667969 76 " clip-rule="nonzero"/></clipPath><clipPath id="1cd5fc8e3e"><path d="M 257 71 L 359.890625 71 L 359.890625 192 L 257 192 Z M 257 71 " clip-rule="nonzero"/></clipPath><clipPath id="0d8a1a47c0"><path d="M 113.238281 70.53125 L 192.847656 70.53125 L 192.847656 189.351562 L 113.238281 189.351562 Z M 113.238281 70.53125 " clip-rule="nonzero"/></clipPath></defs><g clip-path="url(#c3d2262f50)"><path fill="#211d1d" d="M 8.355469 128.117188 L 93.175781 77.183594 C 94.453125 76.472656 95.875 76.117188 97.4375 76.117188 C 99.78125 76.117188 101.789062 76.953125 103.457031 78.621094 C 105.128906 80.292969 105.960938 82.296875 105.960938 84.644531 C 105.960938 87.695312 104.507812 90.183594 101.59375 92.101562 L 28.707031 135.789062 L 101.59375 179.476562 C 104.507812 181.394531 105.960938 183.882812 105.960938 186.9375 C 105.960938 189.28125 105.128906 191.285156 103.457031 192.957031 C 101.789062 194.628906 99.78125 195.460938 97.4375 195.460938 C 95.875 195.460938 94.453125 195.105469 93.175781 194.398438 L 8.355469 143.460938 C 5.230469 141.472656 3.667969 138.914062 3.667969 135.789062 C 3.667969 132.664062 5.230469 130.105469 8.355469 128.117188 " fill-opacity="1" fill-rule="nonzero"/></g><g clip-path="url(#1cd5fc8e3e)"><path fill="#211d1d" d="M 359.445312 131.511719 C 359.445312 134.636719 357.882812 137.195312 354.757812 139.183594 L 269.9375 190.121094 C 268.660156 190.828125 267.238281 191.183594 265.675781 191.183594 C 263.328125 191.183594 261.324219 190.351562 259.65625 188.679688 C 257.984375 187.007812 257.152344 185.003906 257.152344 182.660156 C 257.152344 179.605469 258.605469 177.117188 261.519531 175.199219 L 334.402344 131.511719 L 261.519531 87.824219 C 258.605469 85.90625 257.152344 83.417969 257.152344 80.363281 C 257.152344 78.019531 257.984375 76.015625 259.65625 74.34375 C 261.324219 72.675781 263.328125 71.839844 265.675781 71.839844 C 267.238281 71.839844 268.660156 72.195312 269.9375 72.90625 L 354.757812 123.839844 C 357.882812 125.828125 359.445312 128.386719 359.445312 131.511719 " fill-opacity="1" fill-rule="nonzero"/></g><g fill="#211d1d" fill-opacity="1"><g transform="translate(68.14628, 242.493514)"><g><path d="M 12.734375 -29.40625 C 14.296875 -29.40625 15.820312 -29.175781 17.3125 -28.71875 C 18.8125 -28.257812 19.925781 -27.8125 20.65625 -27.375 L 21.703125 -26.671875 L 19.046875 -21.421875 C 18.828125 -21.554688 18.53125 -21.734375 18.15625 -21.953125 C 17.789062 -22.179688 17.09375 -22.484375 16.0625 -22.859375 C 15.039062 -23.234375 14.082031 -23.421875 13.1875 -23.421875 C 12.09375 -23.421875 11.25 -23.1875 10.65625 -22.71875 C 10.0625 -22.25 9.765625 -21.617188 9.765625 -20.828125 C 9.765625 -20.429688 9.90625 -20.0625 10.1875 -19.71875 C 10.46875 -19.382812 10.945312 -19.023438 11.625 -18.640625 C 12.300781 -18.253906 12.894531 -17.941406 13.40625 -17.703125 C 13.914062 -17.472656 14.707031 -17.125 15.78125 -16.65625 C 17.644531 -15.863281 19.238281 -14.785156 20.5625 -13.421875 C 21.882812 -12.054688 22.546875 -10.507812 22.546875 -8.78125 C 22.546875 -7.125 22.242188 -5.675781 21.640625 -4.4375 C 21.046875 -3.207031 20.226562 -2.238281 19.1875 -1.53125 C 18.15625 -0.832031 17.007812 -0.316406 15.75 0.015625 C 14.488281 0.359375 13.125 0.53125 11.65625 0.53125 C 10.394531 0.53125 9.15625 0.398438 7.9375 0.140625 C 6.726562 -0.117188 5.710938 -0.441406 4.890625 -0.828125 C 4.078125 -1.210938 3.34375 -1.585938 2.6875 -1.953125 C 2.039062 -2.328125 1.566406 -2.644531 1.265625 -2.90625 L 0.8125 -3.296875 L 4.09375 -8.8125 C 4.375 -8.582031 4.757812 -8.285156 5.25 -7.921875 C 5.738281 -7.566406 6.609375 -7.082031 7.859375 -6.46875 C 9.109375 -5.863281 10.210938 -5.5625 11.171875 -5.5625 C 13.941406 -5.5625 15.328125 -6.507812 15.328125 -8.40625 C 15.328125 -8.800781 15.226562 -9.164062 15.03125 -9.5 C 14.832031 -9.84375 14.484375 -10.179688 13.984375 -10.515625 C 13.484375 -10.859375 13.039062 -11.128906 12.65625 -11.328125 C 12.269531 -11.523438 11.640625 -11.828125 10.765625 -12.234375 C 9.890625 -12.640625 9.238281 -12.945312 8.8125 -13.15625 C 7.0625 -14.019531 5.707031 -15.097656 4.75 -16.390625 C 3.800781 -17.691406 3.328125 -19.085938 3.328125 -20.578125 C 3.328125 -23.171875 4.28125 -25.289062 6.1875 -26.9375 C 8.101562 -28.582031 10.285156 -29.40625 12.734375 -29.40625 Z M 12.734375 -29.40625 "/></g></g></g><g fill="#211d1d" fill-opacity="1"><g transform="translate(96.201437, 242.493514)"><g><path d="M 0.8125 -14.453125 C 0.8125 -18.628906 2.234375 -22.164062 5.078125 -25.0625 C 7.921875 -27.957031 11.347656 -29.40625 15.359375 -29.40625 C 19.398438 -29.40625 22.832031 -27.960938 25.65625 -25.078125 C 28.476562 -22.191406 29.890625 -18.648438 29.890625 -14.453125 C 29.890625 -10.234375 28.5 -6.679688 25.71875 -3.796875 C 22.945312 -0.910156 19.492188 0.53125 15.359375 0.53125 C 11.140625 0.53125 7.660156 -0.894531 4.921875 -3.75 C 2.179688 -6.613281 0.8125 -10.179688 0.8125 -14.453125 Z M 7.90625 -14.453125 C 7.90625 -12.941406 8.140625 -11.5625 8.609375 -10.3125 C 9.078125 -9.0625 9.894531 -8.003906 11.0625 -7.140625 C 12.226562 -6.273438 13.660156 -5.84375 15.359375 -5.84375 C 17.816406 -5.84375 19.664062 -6.679688 20.90625 -8.359375 C 22.15625 -10.046875 22.78125 -12.078125 22.78125 -14.453125 C 22.78125 -16.804688 22.144531 -18.828125 20.875 -20.515625 C 19.601562 -22.210938 17.765625 -23.0625 15.359375 -23.0625 C 12.984375 -23.0625 11.144531 -22.210938 9.84375 -20.515625 C 8.550781 -18.828125 7.90625 -16.804688 7.90625 -14.453125 Z M 7.90625 -14.453125 "/></g></g></g><g fill="#211d1d" fill-opacity="1"><g transform="translate(131.427072, 242.493514)"><g><path d="M 18.796875 -28.875 L 18.796875 -23.09375 L 8.6875 -23.09375 L 8.6875 -17.359375 L 18.03125 -17.359375 L 18.03125 -11.578125 L 8.6875 -11.578125 L 8.6875 0 L 2.09375 0 L 2.09375 -28.875 Z M 18.796875 -28.875 "/></g></g></g><g fill="#211d1d" fill-opacity="1"><g transform="translate(155.809548, 242.493514)"><g><path d="M 0.28125 -23.09375 L 0.28125 -28.875 L 20.578125 -28.875 L 20.578125 -23.09375 L 13.71875 -23.09375 L 13.71875 0 L 7.140625 0 L 7.140625 -23.09375 Z M 0.28125 -23.09375 "/></g></g></g><g fill="#211d1d" fill-opacity="1"><g transform="translate(181.206378, 242.493514)"><g><path d="M 24.25 0 L 19.640625 -16.203125 L 15.015625 0 L 7.703125 0 L -0.53125 -28.875 L 6.796875 -28.875 L 11.71875 -9.0625 L 11.90625 -9.0625 L 17.15625 -28.875 L 22.125 -28.875 L 27.375 -9.0625 L 27.546875 -9.0625 L 32.484375 -28.875 L 39.765625 -28.875 L 31.53125 0 Z M 24.25 0 "/></g></g></g><g fill="#211d1d" fill-opacity="1"><g transform="translate(224.966628, 242.493514)"><g><path d="M 16.765625 -28.875 L 28.421875 0 L 21.34375 0 L 19.21875 -5.78125 L 8.21875 -5.78125 L 6.09375 0 L -0.984375 0 L 10.671875 -28.875 Z M 16.96875 -11.546875 L 13.75 -19.953125 L 13.6875 -19.953125 L 10.46875 -11.546875 Z M 16.96875 -11.546875 "/></g></g></g><g fill="#211d1d" fill-opacity="1"><g transform="translate(256.939313, 242.493514)"><g><path d="M 2.09375 -28.875 L 12.421875 -28.875 C 15.203125 -28.875 17.46875 -28.132812 19.21875 -26.65625 C 20.96875 -25.175781 21.84375 -23.054688 21.84375 -20.296875 C 21.84375 -18.171875 21.3125 -16.390625 20.25 -14.953125 C 19.1875 -13.523438 17.742188 -12.519531 15.921875 -11.9375 L 25.859375 0 L 17.5 0 L 8.6875 -11.40625 L 8.6875 0 L 2.09375 0 Z M 8.6875 -16.0625 L 9.453125 -16.0625 C 10.054688 -16.0625 10.566406 -16.070312 10.984375 -16.09375 C 11.410156 -16.125 11.890625 -16.207031 12.421875 -16.34375 C 12.960938 -16.488281 13.394531 -16.6875 13.71875 -16.9375 C 14.039062 -17.195312 14.316406 -17.570312 14.546875 -18.0625 C 14.785156 -18.550781 14.90625 -19.144531 14.90625 -19.84375 C 14.90625 -20.539062 14.785156 -21.132812 14.546875 -21.625 C 14.316406 -22.113281 14.039062 -22.488281 13.71875 -22.75 C 13.394531 -23.007812 12.960938 -23.207031 12.421875 -23.34375 C 11.890625 -23.488281 11.410156 -23.570312 10.984375 -23.59375 C 10.566406 -23.613281 10.054688 -23.625 9.453125 -23.625 L 8.6875 -23.625 Z M 8.6875 -16.0625 "/></g></g></g><g fill="#211d1d" fill-opacity="1"><g transform="translate(286.533516, 242.493514)"><g><path d="M 18.625 -28.875 L 18.625 -23.09375 L 8.6875 -23.09375 L 8.6875 -17.359375 L 18.203125 -17.359375 L 18.203125 -11.578125 L 8.6875 -11.578125 L 8.6875 -5.78125 L 18.625 -5.78125 L 18.625 0 L 2.09375 0 L 2.09375 -28.875 Z M 18.625 -28.875 "/></g></g></g><g fill="#594ae2" fill-opacity="1"><g transform="translate(62.855041, 291.210039)"><g><path d="M 2.09375 -28.875 L 10.46875 -28.875 C 14.476562 -28.875 17.90625 -27.503906 20.75 -24.765625 C 23.601562 -22.023438 25.03125 -18.585938 25.03125 -14.453125 C 25.03125 -10.296875 23.609375 -6.847656 20.765625 -4.109375 C 17.929688 -1.367188 14.5 0 10.46875 0 L 2.09375 0 Z M 8.6875 -5.875 L 9.6875 -5.875 C 12.09375 -5.875 14.0625 -6.6875 15.59375 -8.3125 C 17.125 -9.9375 17.898438 -11.972656 17.921875 -14.421875 C 17.921875 -16.867188 17.15625 -18.910156 15.625 -20.546875 C 14.09375 -22.179688 12.113281 -23 9.6875 -23 L 8.6875 -23 Z M 8.6875 -5.875 "/></g></g></g><g fill="#594ae2" fill-opacity="1"><g transform="translate(93.218735, 291.210039)"><g><path d="M 18.625 -28.875 L 18.625 -23.09375 L 8.6875 -23.09375 L 8.6875 -17.359375 L 18.203125 -17.359375 L 18.203125 -11.578125 L 8.6875 -11.578125 L 8.6875 -5.78125 L 18.625 -5.78125 L 18.625 0 L 2.09375 0 L 2.09375 -28.875 Z M 18.625 -28.875 "/></g></g></g><g fill="#594ae2" fill-opacity="1"><g transform="translate(118.055927, 291.210039)"><g><path d="M 11.125 0 L -0.984375 -28.875 L 6.4375 -28.875 L 13.71875 -9.90625 L 21 -28.875 L 28.421875 -28.875 L 16.3125 0 Z M 11.125 0 "/></g></g></g><g fill="#594ae2" fill-opacity="1"><g transform="translate(150.028622, 291.210039)"><g><path d="M 18.625 -28.875 L 18.625 -23.09375 L 8.6875 -23.09375 L 8.6875 -17.359375 L 18.203125 -17.359375 L 18.203125 -11.578125 L 8.6875 -11.578125 L 8.6875 -5.78125 L 18.625 -5.78125 L 18.625 0 L 2.09375 0 L 2.09375 -28.875 Z M 18.625 -28.875 "/></g></g></g><g fill="#594ae2" fill-opacity="1"><g transform="translate(174.865814, 291.210039)"><g><path d="M 8.6875 -28.875 L 8.6875 -5.78125 L 18.625 -5.78125 L 18.625 0 L 2.09375 0 L 2.09375 -28.875 Z M 8.6875 -28.875 "/></g></g></g><g fill="#594ae2" fill-opacity="1"><g transform="translate(199.178343, 291.210039)"><g><path d="M 0.8125 -14.453125 C 0.8125 -18.628906 2.234375 -22.164062 5.078125 -25.0625 C 7.921875 -27.957031 11.347656 -29.40625 15.359375 -29.40625 C 19.398438 -29.40625 22.832031 -27.960938 25.65625 -25.078125 C 28.476562 -22.191406 29.890625 -18.648438 29.890625 -14.453125 C 29.890625 -10.234375 28.5 -6.679688 25.71875 -3.796875 C 22.945312 -0.910156 19.492188 0.53125 15.359375 0.53125 C 11.140625 0.53125 7.660156 -0.894531 4.921875 -3.75 C 2.179688 -6.613281 0.8125 -10.179688 0.8125 -14.453125 Z M 7.90625 -14.453125 C 7.90625 -12.941406 8.140625 -11.5625 8.609375 -10.3125 C 9.078125 -9.0625 9.894531 -8.003906 11.0625 -7.140625 C 12.226562 -6.273438 13.660156 -5.84375 15.359375 -5.84375 C 17.816406 -5.84375 19.664062 -6.679688 20.90625 -8.359375 C 22.15625 -10.046875 22.78125 -12.078125 22.78125 -14.453125 C 22.78125 -16.804688 22.144531 -18.828125 20.875 -20.515625 C 19.601562 -22.210938 17.765625 -23.0625 15.359375 -23.0625 C 12.984375 -23.0625 11.144531 -22.210938 9.84375 -20.515625 C 8.550781 -18.828125 7.90625 -16.804688 7.90625 -14.453125 Z M 7.90625 -14.453125 "/></g></g></g><g fill="#594ae2" fill-opacity="1"><g transform="translate(234.403978, 291.210039)"><g><path d="M 2.09375 -28.875 L 12.640625 -28.875 C 15.578125 -28.875 17.953125 -28.113281 19.765625 -26.59375 C 21.585938 -25.082031 22.5 -22.878906 22.5 -19.984375 C 22.5 -17.085938 21.578125 -14.816406 19.734375 -13.171875 C 17.890625 -11.523438 15.523438 -10.703125 12.640625 -10.703125 L 8.6875 -10.703125 L 8.6875 0 L 2.09375 0 Z M 8.6875 -15.953125 L 10.53125 -15.953125 C 12 -15.953125 13.207031 -16.25 14.15625 -16.84375 C 15.101562 -17.445312 15.578125 -18.425781 15.578125 -19.78125 C 15.578125 -21.15625 15.101562 -22.140625 14.15625 -22.734375 C 13.207031 -23.328125 12 -23.625 10.53125 -23.625 L 8.6875 -23.625 Z M 8.6875 -15.953125 "/></g></g></g><g fill="#594ae2" fill-opacity="1"><g transform="translate(262.249264, 291.210039)"><g><path d="M 18.625 -28.875 L 18.625 -23.09375 L 8.6875 -23.09375 L 8.6875 -17.359375 L 18.203125 -17.359375 L 18.203125 -11.578125 L 8.6875 -11.578125 L 8.6875 -5.78125 L 18.625 -5.78125 L 18.625 0 L 2.09375 0 L 2.09375 -28.875 Z M 18.625 -28.875 "/></g></g></g><g fill="#594ae2" fill-opacity="1"><g transform="translate(287.086465, 291.210039)"><g><path d="M 2.09375 -28.875 L 12.421875 -28.875 C 15.203125 -28.875 17.46875 -28.132812 19.21875 -26.65625 C 20.96875 -25.175781 21.84375 -23.054688 21.84375 -20.296875 C 21.84375 -18.171875 21.3125 -16.390625 20.25 -14.953125 C 19.1875 -13.523438 17.742188 -12.519531 15.921875 -11.9375 L 25.859375 0 L 17.5 0 L 8.6875 -11.40625 L 8.6875 0 L 2.09375 0 Z M 8.6875 -16.0625 L 9.453125 -16.0625 C 10.054688 -16.0625 10.566406 -16.070312 10.984375 -16.09375 C 11.410156 -16.125 11.890625 -16.207031 12.421875 -16.34375 C 12.960938 -16.488281 13.394531 -16.6875 13.71875 -16.9375 C 14.039062 -17.195312 14.316406 -17.570312 14.546875 -18.0625 C 14.785156 -18.550781 14.90625 -19.144531 14.90625 -19.84375 C 14.90625 -20.539062 14.785156 -21.132812 14.546875 -21.625 C 14.316406 -22.113281 14.039062 -22.488281 13.71875 -22.75 C 13.394531 -23.007812 12.960938 -23.207031 12.421875 -23.34375 C 11.890625 -23.488281 11.410156 -23.570312 10.984375 -23.59375 C 10.566406 -23.613281 10.054688 -23.625 9.453125 -23.625 L 8.6875 -23.625 Z M 8.6875 -16.0625 "/></g></g></g><g clip-path="url(#0d8a1a47c0)"><path fill="#594ae2" d="M 189.617188 70.566406 L 171.183594 70.566406 C 169.726562 70.566406 168.546875 71.746094 168.546875 73.199219 L 168.546875 151.664062 C 168.546875 160.210938 162 167.667969 153.457031 168.003906 C 144.40625 168.355469 136.941406 161.183594 136.941406 152.21875 C 136.941406 150.761719 135.761719 149.582031 134.308594 149.582031 L 115.871094 149.582031 C 114.398438 149.582031 113.234375 150.796875 113.238281 152.269531 C 113.265625 172.578125 130.980469 189.089844 152.746094 189.089844 C 174.53125 189.089844 192.253906 172.550781 192.253906 152.21875 L 192.253906 73.199219 C 192.253906 71.746094 191.074219 70.566406 189.617188 70.566406 Z M 189.617188 70.566406 " fill-opacity="1" fill-rule="nonzero"/></g><path stroke-linecap="round" transform="matrix(1.188208, 0, 0, 1.188208, 169.867405, 70.53001)" fill="none" stroke-linejoin="miter" d="M 7.498636 7.499863 L 56.101241 7.499863 " stroke="#594ae2" stroke-width="15" stroke-opacity="1" stroke-miterlimit="4"/><path stroke-linecap="round" transform="matrix(1.188208, 0, 0, 1.188208, 169.867405, 112.008523)" fill="none" stroke-linejoin="miter" d="M 7.498636 7.501509 L 56.101241 7.501509 " stroke="#594ae2" stroke-width="15" stroke-opacity="1" stroke-miterlimit="4"/></svg>